<?xml version="1.0" encoding="utf-8"?>
<!-- Generator: Adobe Illustrator 23.1.0, SVG Export Plug-In . SVG Version: 6.00 Build 0)  -->
<svg version="1.1" id="Vrstva_1" xmlns="http://www.w3.org/2000/svg" xmlns:xlink="http://www.w3.org/1999/xlink" x="0px" y="0px"
	 viewBox="0 0 231.3 44.1" style="enable-background:new 0 0 231.3 44.1;" xml:space="preserve">
<style type="text/css">
	.st0{clip-path:url(#SVGID_2_);fill:#62277F;}
</style>
<g>
	<defs>
		<rect id="SVGID_1_" width="231.3" height="44.1"/>
	</defs>
	<clipPath id="SVGID_2_">
		<use xlink:href="#SVGID_1_"  style="overflow:visible;"/>
	</clipPath>
	<path class="st0" d="M130.6,35.4c-2.9,0-4.3-1.2-4.3-3.3V20.4h5.5v-8.1h-5.5V5.8h-11.6v27.4c0,7,5.9,10.9,14.1,10.9
		c2.2,0,3.6-0.2,5.1-0.5v-8.4C133.3,35.3,132.2,35.4,130.6,35.4 M89,22.5v20.9h11.6V23.7c0-2,1.4-3.3,4.3-3.3c1.6,0,2.7,0.1,3.4,0.2
		v-8.4c-1.6-0.3-2.9-0.5-5.1-0.5C94.9,11.7,89,15.6,89,22.5 M214.2,20.4c0-1,0.9-1.7,2.3-1.7c1.6,0,3.1,1.1,3.7,2.5l9.9-2.5
		c-2.4-4.2-6.7-6.9-14-6.9c-7.5,0-13.3,3.9-13.3,10.1c0,11.3,17.8,8.6,17.8,13.2c0,1.1-1,1.7-2.6,1.7c-2.5,0-4.4-1.6-4.9-3.7
		l-10.7,2.4c1.8,5.5,7.2,8.8,15,8.8c7.8,0,14-4.1,14-10.3C231.3,21.4,214.2,24.4,214.2,20.4 M170.9,24.1c0.6-3.1,2.1-4.6,4.9-4.6
		c2.5,0,4,1.5,4.3,4.6H170.9z M175.4,11.7c-9.9,0-16.4,7-16.4,16.3c0,9.9,6.5,16.1,17.1,16.1c7.2,0,12.7-3.2,15.3-9.2l-10.9-2.4
		c-0.3,2.5-1.8,3.5-4.4,3.5c-3.4,0-4.8-1.9-5.2-5.6h20.7c0.1-1.1,0.1-2.2,0.1-3.2C191.6,18.1,185.2,11.7,175.4,11.7 M196.9,0.3
		c-3.7,0-6.7,2.7-6.7,6.5c0,3.8,3,6.5,6.7,6.5c3.7,0,6.7-2.7,6.7-6.5C203.7,3,200.6,0.3,196.9,0.3 M141.3,43.5H153V12.3h-11.6V43.5z
		 M65.9,35.3c-3.7,0-6.1-2.5-6.1-7.4c0-4.8,2.4-7.5,6.1-7.5c3.7,0,6.1,2.6,6.1,7.5C72,32.7,69.6,35.3,65.9,35.3 M65.9,11.7
		c-10.8,0-17.8,6.3-17.8,16.2c0,9.8,7,16.2,17.8,16.2c10.8,0,17.8-6.3,17.8-16.2C83.7,18,76.7,11.7,65.9,11.7 M19.5,33.5h-6.2V9.9
		h6.2c6.2,0,10.2,4.7,10.2,11.8C29.8,28.9,25.8,33.5,19.5,33.5 M19.2,0H0v43.5h19.2c13.4,0,24.6-8.7,24.6-21.7
		C43.8,8.6,32.6,0,19.2,0"/>
</g>
</svg>
