<?xml version="1.0" encoding="utf-8"?>
<!-- Generator: Adobe Illustrator 23.1.0, SVG Export Plug-In . SVG Version: 6.00 Build 0)  -->
<svg version="1.1" id="Vrstva_1" xmlns="http://www.w3.org/2000/svg" xmlns:xlink="http://www.w3.org/1999/xlink" x="0px" y="0px"
	 viewBox="0 0 166.9 18.7" style="enable-background:new 0 0 166.9 18.7;" xml:space="preserve">
<style type="text/css">
	.st0{fill:#C28B4F;}
</style>
<g>
	<path class="st0" d="M10.3,9.4c0,3-1.9,5.1-4.7,5.1c-1.7,0-2.8-0.7-3.4-1.9v1.7H0v-14h2.3v5.8C2.9,5,3.9,4.3,5.6,4.3
		C8.4,4.3,10.3,6.4,10.3,9.4z M8,9.4C8,7.4,6.8,6,5.1,6C3.3,6,2.2,7.3,2.2,9.4c0,2.1,1.1,3.4,2.9,3.4C6.8,12.8,8,11.4,8,9.4z"/>
	<path class="st0" d="M21.7,4.5l-6.2,14.1h-2.7l2.8-4.9l-4.1-9.1H14l2.8,6.6l2.6-6.6H21.7z"/>
	<path class="st0" d="M28.7,10.7l2.4-0.6c0.5,1.8,1.8,2.6,3.6,2.6c1.8,0,2.8-0.8,2.8-2c0-3.2-8.3-1.4-8.3-6.6c0-2.4,1.9-4,4.9-4
		c2.3,0,4.6,0.9,5.4,3.5l-2.4,0.5c-0.4-1.5-1.5-2.2-3-2.2c-1.6,0-2.5,0.8-2.5,1.9c0,3.4,8.3,1.5,8.3,6.6c0,2.5-2.1,4.1-5.2,4.1
		C31.9,14.5,29.5,13.3,28.7,10.7z"/>
	<path class="st0" d="M57.5,4.5l-3.1,9.9h-2.7l-2.3-6.9l-2.3,6.9h-2.7l-2.9-9.9h2.4l2,8.1l2.6-8.1h2l2.6,8.1l2.2-8.1H57.5z"/>
	<path class="st0" d="M68.6,9.9h-7.4c0.2,2,1.2,2.9,2.7,2.9c1.3,0,2.1-0.6,2.3-1.7l2.2,0.7c-0.8,1.6-2.3,2.6-4.5,2.6
		c-3,0-5.1-2-5.1-5.1s2.1-5.2,5-5.2c2.9,0,4.8,2,4.8,4.9C68.6,9.4,68.6,9.7,68.6,9.9z M61.2,8.5h5.1c-0.1-1.7-1-2.6-2.5-2.6
		C62.3,5.9,61.4,6.8,61.2,8.5z"/>
	<path class="st0" d="M80.2,9.9h-7.4c0.2,2,1.2,2.9,2.7,2.9c1.3,0,2.1-0.6,2.3-1.7l2.2,0.7c-0.8,1.6-2.3,2.6-4.5,2.6
		c-3,0-5.1-2-5.1-5.1s2.1-5.2,5-5.2c2.9,0,4.8,2,4.8,4.9C80.3,9.4,80.3,9.7,80.2,9.9z M72.9,8.5H78c-0.1-1.7-1-2.6-2.5-2.6
		C74,5.9,73.1,6.8,72.9,8.5z"/>
	<path class="st0" d="M88.8,12.5v1.9c-0.3,0.1-0.9,0.1-1.3,0.1c-2.3,0-4.1-1.3-4.1-3.6V6.1h-1.8V4.5h1.8V1.1h2.3v3.3h3.2v1.6h-3.2
		v4.6c0,1.4,0.9,2.1,2.1,2.1C88,12.8,88.6,12.7,88.8,12.5z"/>
	<path class="st0" d="M97,0.3h5.6c4.2,0,7.5,2.8,7.5,7c0,4.2-3.3,7-7.5,7H97V0.3z M102.6,12.4c2.8,0,4.8-2.1,4.8-5.1
		c0-3-2-5.1-4.8-5.1h-3.1v10.2H102.6z"/>
	<path class="st0" d="M122,9.9h-7.4c0.2,2,1.2,2.9,2.7,2.9c1.3,0,2.1-0.6,2.3-1.7l2.2,0.7c-0.8,1.6-2.3,2.6-4.5,2.6
		c-3,0-5.1-2-5.1-5.1s2.1-5.2,5-5.2c2.9,0,4.8,2,4.8,4.9C122,9.4,122,9.7,122,9.9z M114.6,8.5h5.1c-0.1-1.7-1-2.6-2.5-2.6
		C115.7,5.9,114.8,6.8,114.6,8.5z"/>
	<path class="st0" d="M124.6,0.3h2.3v14h-2.3V0.3z"/>
	<path class="st0" d="M129.9,1.5c0-0.9,0.6-1.5,1.5-1.5c0.9,0,1.5,0.6,1.5,1.5c0,0.9-0.6,1.4-1.5,1.4C130.5,2.9,129.9,2.3,129.9,1.5
		z M130.3,4.5h2.3v9.9h-2.3V4.5z"/>
	<path class="st0" d="M145.4,4.5v10.1c0,2.7-2.3,4.2-5.1,4.2c-2.4,0-4.2-1-5-2.7l2.1-0.8c0.4,1.1,1.5,1.8,2.9,1.8
		c1.6,0,2.9-1,2.9-2.5v-2.2c-0.6,1.1-1.7,1.8-3.3,1.8c-2.8,0-4.7-2-4.7-4.9c0-2.9,1.8-5,4.7-5c1.6,0,2.7,0.7,3.3,1.8V4.5H145.4z
		 M143.2,9.2c0-2-1.1-3.3-2.8-3.3c-1.8,0-2.9,1.3-2.9,3.3c0,1.9,1.1,3.3,2.9,3.3C142.1,12.5,143.2,11.3,143.2,9.2z"/>
	<path class="st0" d="M157.7,8.2v6.2h-2.3V8.4c0-1.5-0.9-2.3-2.1-2.3c-1.4,0-2.3,1-2.4,2.5v5.8h-2.3v-14h2.3v5.9
		c0.6-1.2,1.6-1.9,3.2-1.9C156.3,4.3,157.7,5.7,157.7,8.2z"/>
	<path class="st0" d="M166.9,12.5v1.9c-0.3,0.1-0.9,0.1-1.3,0.1c-2.3,0-4.1-1.3-4.1-3.6V6.1h-1.8V4.5h1.8V1.1h2.3v3.3h3.2v1.6h-3.2
		v4.6c0,1.4,0.9,2.1,2.1,2.1C166.1,12.8,166.6,12.7,166.9,12.5z"/>
</g>
</svg>
