<?xml version="1.0" encoding="utf-8"?>
<!-- Generator: Adobe Illustrator 23.1.0, SVG Export Plug-In . SVG Version: 6.00 Build 0)  -->
<svg version="1.1" id="Vrstva_1" xmlns="http://www.w3.org/2000/svg" xmlns:xlink="http://www.w3.org/1999/xlink" x="0px" y="0px"
	 viewBox="0 0 268.6 179.1" style="enable-background:new 0 0 268.6 179.1;" xml:space="preserve">
<style type="text/css">
	.st0{fill:#C28B4F;}
</style>
<g>
	<path class="st0" d="M4.1,0h13.7c11.3,0,19.8,7.8,19.8,19.3c0,11.5-8.4,19.3-19.8,19.3H4.1V0z M17.8,35.8C27.3,35.8,34,29,34,19.3
		c0-9.7-6.8-16.5-16.3-16.5H7.5v33.1H17.8z"/>
	<path class="st0" d="M44.5,2.9c0-1.4,1-2.4,2.5-2.4c1.5,0,2.5,1,2.5,2.4c0,1.5-1,2.5-2.5,2.5C45.5,5.3,44.5,4.4,44.5,2.9z
		 M45.3,11.7h3.3v26.8h-3.3V11.7z"/>
	<path class="st0" d="M55.6,32.1l3.1-0.9c1.4,3.7,4.3,5.7,8.2,5.7c4,0,6.5-2,6.5-5c0-7.4-16.6-3.6-16.6-13.2c0-4.2,3.5-7.5,9.2-7.5
		c4.4,0,8.3,1.9,9.9,5.8l-3,0.8c-1.2-2.7-3.5-4.2-6.8-4.2c-3.6,0-6.1,1.9-6.1,4.6c0,7.3,16.6,3.6,16.6,13.2c0,4.6-4,7.7-9.6,7.7
		C61.9,39.1,57.2,36.7,55.6,32.1z"/>
	<path class="st0" d="M81.2,25.2c0-8,5.8-14,13.8-14c5.9,0,10.1,3.3,12,8.2l-3,0.9c-1.3-4-4.4-6.5-9-6.5c-6.3,0-10.5,4.6-10.5,11.5
		c0,6.8,4.2,11.3,10.5,11.3c4.6,0,7.7-2.5,9-6.6l3.1,0.8c-1.8,5-6.1,8.3-12.1,8.3C87,39.1,81.2,33.2,81.2,25.2z"/>
	<path class="st0" d="M139.5,25.2c0,7.9-5.8,13.9-13.9,13.9c-8,0-13.8-5.9-13.8-13.9c0-8,5.8-14,13.8-14
		C133.6,11.2,139.5,17.2,139.5,25.2z M136.1,25.2c0-6.9-4.2-11.5-10.5-11.5c-6.3,0-10.5,4.6-10.5,11.5c0,6.8,4.2,11.3,10.5,11.3
		C131.9,36.6,136.1,32,136.1,25.2z"/>
	<path class="st0" d="M167.9,11.7l-11,26.8h-3.6l-11-26.8h3.5l9.5,23.9l9.3-23.9H167.9z"/>
	<path class="st0" d="M196.2,25.8h-22c0.3,6.9,4.3,10.7,9.9,10.7c4.2,0,7.1-2.2,8.3-5.7l3.3,1.4c-2.1,4.1-6,6.8-11.5,6.8
		c-7.8,0-13.2-5.6-13.2-13.9c0-8.5,5.6-14,13.1-14c7.4,0,12.3,5.3,12.3,13.4V25.8z M174.3,23.4H193c-0.2-5.9-3.5-9.8-9.1-9.8
		C178.5,13.7,174.8,17.4,174.3,23.4z"/>
	<path class="st0" d="M217.3,11.5v3c-0.6-0.2-1.1-0.3-2-0.3c-6.3,0-9,6.2-9,12.7v11.7h-3.3V11.7h3.3v7.5c1.4-4.6,4.3-8,9.3-8
		C216.4,11.3,216.8,11.4,217.3,11.5z"/>
	<path class="st0" d="M23.2,90.2v18.4h-3.2v-5.2c-1.7,3.6-5.2,5.8-9.9,5.8c-5.2,0-8.6-2.8-8.6-7.2c0-11.3,18.5-7.4,18.5-12v-0.2
		c0-3.3-2.7-6-6.8-6c-3.7,0-6.9,2.2-8.4,5.7L2,88.1c2.2-4.2,6.2-6.9,11.3-6.9C19.3,81.2,23.2,84.8,23.2,90.2z M20.1,98.4v-4.7
		c-4.6,2.5-15.2,1.2-15.2,8.3c0,3,2.3,4.8,5.8,4.8C15.8,106.7,20.1,102.9,20.1,98.4z"/>
	<path class="st0" d="M44,95.2c0-8,5.8-14,13.8-14c5.9,0,10.1,3.3,12,8.2l-3,0.9c-1.3-4-4.4-6.5-9-6.5c-6.3,0-10.5,4.6-10.5,11.5
		c0,6.8,4.2,11.3,10.5,11.3c4.6,0,7.7-2.5,9-6.6l3.1,0.8c-1.8,5-6.1,8.3-12.1,8.3C49.7,109.1,44,103.2,44,95.2z"/>
	<path class="st0" d="M99.4,91.8v16.8h-3.2V92c0-5.3-3.1-8.3-7.5-8.3c-5.6,0-8.9,4.6-8.9,11.1v13.7h-3.3V70h3.3v18
		c1.6-4.2,4.8-6.8,9.7-6.8C95.5,81.2,99.4,84.9,99.4,91.8z"/>
	<path class="st0" d="M107.2,72.9c0-1.4,1-2.4,2.5-2.4c1.5,0,2.5,1,2.5,2.4c0,1.5-1,2.5-2.5,2.5C108.2,75.3,107.2,74.4,107.2,72.9z
		 M108.1,81.7h3.3v26.8h-3.3V81.7z"/>
	<path class="st0" d="M118.3,95.2c0-8,5.8-14,13.8-14c5.9,0,10.1,3.3,12,8.2l-3,0.9c-1.3-4-4.4-6.5-9-6.5c-6.3,0-10.5,4.6-10.5,11.5
		c0,6.8,4.2,11.3,10.5,11.3c4.6,0,7.7-2.5,9-6.6l3.1,0.8c-1.8,5-6.1,8.3-12.1,8.3C124,109.1,118.3,103.2,118.3,95.2z"/>
	<path class="st0" d="M187.9,91.8v16.8h-3.2V92c0-5.3-3.1-8.3-7.5-8.3c-5.6,0-8.9,4.6-8.9,11.1v13.7H165V81.7h3.3V88
		c1.6-4.2,4.8-6.8,9.7-6.8C184,81.2,187.9,84.9,187.9,91.8z"/>
	<path class="st0" d="M219.8,95.8h-22c0.3,6.9,4.3,10.7,9.9,10.7c4.2,0,7.1-2.2,8.3-5.7l3.3,1.4c-2.1,4.1-6,6.8-11.5,6.8
		c-7.8,0-13.2-5.6-13.2-13.9c0-8.5,5.6-14,13.1-14c7.4,0,12.3,5.3,12.3,13.4V95.8z M197.8,93.4h18.7c-0.2-5.9-3.5-9.8-9.1-9.8
		C202,83.7,198.3,87.4,197.8,93.4z"/>
	<path class="st0" d="M264.5,81.7l-9,26.8h-3.7l-8.1-22.5l-8.2,22.5h-3.9L223,81.7h3.3l7.3,24.1l8.6-24.1h2.9l8.5,24.1l7.8-24.1
		H264.5z"/>
	<path class="st0" d="M7.8,148.8v3h8.6v2.5H7.8v24.3H4.6v-24.3H0v-2.5h4.6v-3c0-5.9,4.4-9.3,9.9-9.3c1,0,2.6,0.1,3.4,0.4v3.1
		c-0.8-0.6-2.4-0.7-3.3-0.7C10.7,142.2,7.8,144.4,7.8,148.8z"/>
	<path class="st0" d="M20.9,140h3.3v38.6h-3.3V140z"/>
	<path class="st0" d="M53,160.2v18.4h-3.2v-5.2c-1.7,3.6-5.2,5.8-9.9,5.8c-5.2,0-8.6-2.8-8.6-7.2c0-11.3,18.5-7.4,18.5-12v-0.2
		c0-3.3-2.7-6-6.8-6c-3.7,0-6.9,2.2-8.4,5.7l-2.9-1.4c2.2-4.2,6.2-6.9,11.3-6.9C49.1,151.2,53,154.8,53,160.2z M49.8,168.4v-4.7
		c-4.6,2.5-15.2,1.2-15.2,8.3c0,3,2.3,4.8,5.8,4.8C45.6,176.7,49.8,172.9,49.8,168.4z"/>
	<path class="st0" d="M83.2,151.7l-11,26.8h-3.6l-11-26.8h3.5l9.5,23.9l9.3-23.9H83.2z"/>
	<path class="st0" d="M113.9,165.2c0,7.9-5.8,13.9-13.9,13.9s-13.8-5.9-13.8-13.9c0-8,5.8-14,13.8-14S113.9,157.2,113.9,165.2z
		 M110.5,165.2c0-6.9-4.2-11.5-10.5-11.5s-10.5,4.6-10.5,11.5c0,6.8,4.2,11.3,10.5,11.3S110.5,172,110.5,165.2z"/>
	<path class="st0" d="M143.3,151.7v26.8H140v-6.2c-1.6,4.2-4.8,6.8-9.7,6.8c-6,0-9.9-3.7-9.9-10.6v-16.8h3.2v16.6
		c0,5.3,3.1,8.3,7.5,8.3c5.6,0,8.9-4.6,8.9-11.1v-13.7H143.3z"/>
	<path class="st0" d="M166.4,151.5v3c-0.6-0.2-1.1-0.3-2-0.3c-6.3,0-9,6.2-9,12.7v11.7h-3.3v-26.8h3.3v7.5c1.4-4.6,4.3-8,9.3-8
		C165.5,151.3,166,151.4,166.4,151.5z"/>
</g>
</svg>
