<?xml version="1.0" encoding="utf-8"?>
<!-- Generator: Adobe Illustrator 22.1.0, SVG Export Plug-In . SVG Version: 6.00 Build 0)  -->
<svg version="1.1" id="Vrstva_1" xmlns="http://www.w3.org/2000/svg" xmlns:xlink="http://www.w3.org/1999/xlink" x="0px" y="0px"
	 viewBox="0 0 202 12" style="enable-background:new 0 0 202 12;" xml:space="preserve">
<style type="text/css">
	.st0{fill:#6F248E;}
</style>
<g>
	<path class="st0" d="M0,8.6l2.5-0.5C2.9,9.4,4,10,5.2,10c1.3,0,1.9-0.6,1.9-1.3c0-2.3-6.8-1-6.8-5.2C0.3,1.4,2,0,4.7,0
		c2.2,0,4,1,4.7,2.9L6.9,3.4c-0.3-1-1.2-1.6-2.2-1.6c-1.1,0-1.7,0.5-1.7,1.3c0,2.4,6.7,0.9,6.7,5.3c0,2.1-1.8,3.5-4.5,3.5
		C2.6,11.9,0.6,10.7,0,8.6z"/>
	<path class="st0" d="M33.3,0.2L30,11.7h-3.2l-2.5-8.3l-2.5,8.3h-3.1L15.5,0.2h2.8L20.4,9l2.7-8.8h2.7l2.7,9.1l2.3-9.1H33.3z"/>
	<path class="st0" d="M42.5,2.2v2.5h5.2v1.9h-5.2v3h5.9v2.1h-8.5V0.2h8.5v2.1H42.5z"/>
	<path class="st0" d="M58.1,2.2v2.5h5.2v1.9h-5.2v3H64v2.1h-8.5V0.2H64v2.1H58.1z"/>
	<path class="st0" d="M80.5,2.3h-3.8v9.5H74V2.3h-3.8V0.2h10.2V2.3z"/>
	<path class="st0" d="M95.7,0.2h4.8c3.5,0,6.4,2.3,6.4,5.8s-2.8,5.8-6.4,5.8h-4.8V0.2z M100.6,9.7c2.1,0,3.5-1.5,3.5-3.8
		s-1.4-3.8-3.5-3.8h-2.2v7.6H100.6z"/>
	<path class="st0" d="M116.4,2.2v2.5h5.2v1.9h-5.2v3h5.9v2.1h-8.5V0.2h8.5v2.1H116.4z"/>
	<path class="st0" d="M138,9.6v2.1h-8.5V0.2h2.7v9.4H138z"/>
	<path class="st0" d="M147.4,0.2v11.5h-2.7V0.2H147.4z"/>
	<path class="st0" d="M161.1,6h4.9v4.4c-0.8,0.5-2.6,1.5-5,1.5c-3.9,0-6.5-2.4-6.5-5.9c0-3.6,2.6-6,6.2-6c2.8,0,4.9,1.5,5.6,3.9
		l-2.6,0.6c-0.3-1.5-1.4-2.4-3-2.4c-2.1,0-3.5,1.6-3.5,3.8c0,2.3,1.4,3.8,3.8,3.8c0.8,0,1.6-0.1,2.4-0.3V7.9h-2.5V6z"/>
	<path class="st0" d="M184.3,0.2v11.5h-2.7V6.9h-5.7v4.8h-2.7V0.2h2.7v4.7h5.7V0.2H184.3z"/>
	<path class="st0" d="M201.1,2.3h-3.8v9.5h-2.7V2.3h-3.8V0.2h10.2V2.3z"/>
</g>
</svg>
